<svg width="20" height="20" viewBox="0 0 20 20" fill="none" xmlns="http://www.w3.org/2000/svg">
<mask id="mask0_910_5204" style="mask-type:alpha" maskUnits="userSpaceOnUse" x="0" y="0" width="20" height="20">
<rect width="20" height="20" fill="#D9D9D9"/>
</mask>
<g mask="url(#mask0_910_5204)">
<path d="M10 20C15.5228 20 20 15.5228 20 10C20 4.47715 15.5228 0 10 0C4.47715 0 0 4.47715 0 10C0 15.5228 4.47715 20 10 20Z" fill="#1C64F2"/>
<path d="M8.22917 12.0695L13.7292 6.23348C13.8819 6.07075 14.0556 5.99309 14.25 6.00048C14.4444 6.00788 14.6181 6.09294 14.7708 6.25567C14.9236 6.4184 15 6.60331 15 6.81042C15 7.01753 14.9236 7.20244 14.7708 7.36517L8.77083 13.7559C8.61806 13.9186 8.44097 14 8.23958 14C8.03819 14 7.86111 13.9186 7.70833 13.7559L5.22917 11.1153C5.07639 10.9526 5 10.7676 5 10.5605C5 10.3534 5.07639 10.1685 5.22917 10.0058C5.38194 9.84306 5.55556 9.7617 5.75 9.7617C5.94444 9.7617 6.11806 9.84306 6.27083 10.0058L8.22917 12.0695Z" fill="white"/>
</g>
</svg>
