<svg width="20" height="20" viewBox="0 0 20 20" fill="none" xmlns="http://www.w3.org/2000/svg">
<mask id="mask0_910_5161" style="mask-type:alpha" maskUnits="userSpaceOnUse" x="0" y="0" width="20" height="20">
<rect width="20" height="20" fill="#D9D9D9"/>
</mask>
<g mask="url(#mask0_910_5161)">
<path d="M19.5 10C19.5 15.2467 15.2467 19.5 10 19.5C4.75329 19.5 0.5 15.2467 0.5 10C0.5 4.75329 4.75329 0.5 10 0.5C15.2467 0.5 19.5 4.75329 19.5 10Z" fill="white" stroke="#9CA3AF"/>
<path d="M8.22161 12.0766L8.22919 12.0846L8.23675 12.0766L13.7367 6.24062L13.7368 6.24061C13.8878 6.07972 14.0586 6.00363 14.2496 6.01089C14.4409 6.01817 14.612 6.10175 14.7632 6.2628C14.9144 6.42376 14.9896 6.60618 14.9896 6.81042C14.9896 7.01466 14.9144 7.19708 14.7632 7.35804L8.76324 13.7488C8.61219 13.9097 8.43777 13.9896 8.23958 13.9896C8.0414 13.9896 7.86697 13.9097 7.71593 13.7488L5.23676 11.1082C5.08564 10.9472 5.01042 10.7648 5.01042 10.5605C5.01042 10.3563 5.08564 10.1739 5.23676 10.0129C5.38789 9.85195 5.55887 9.77211 5.75 9.77211C5.94113 9.77211 6.11211 9.85195 6.26324 10.0129L6.26328 10.013L8.22161 12.0766Z" fill="#9CA3AF" stroke="#9CA3AF" stroke-width="0.0208333"/>
</g>
</svg>
