<svg width="16" height="16" viewBox="0 0 16 16" fill="none" xmlns="http://www.w3.org/2000/svg">
<path fill-rule="evenodd" clip-rule="evenodd" d="M8 0C10.208 0 12.208 0.896 13.656 2.344C15.16 3.84 16 5.88 16 8C16 10.12 15.16 12.16 13.656 13.656C12.16 15.16 10.12 16 8 16C5.88 16 3.84 15.16 2.344 13.656C0.84 12.16 0 10.12 0 8C0 5.792 0.896 3.792 2.344 2.344C3.84 0.84 5.88 0 8 0Z" fill="#D1D5DB"/>
<path fill-rule="evenodd" clip-rule="evenodd" d="M8.0204 6.87309C7.38682 6.87309 6.87354 7.38637 6.87354 8.01995V11.4606C6.87354 12.0941 7.38682 12.6074 8.0204 12.6074C8.65399 12.6074 9.16727 12.0941 9.16727 11.4606V8.01995C9.16727 7.38637 8.65399 6.87309 8.0204 6.87309ZM8.0204 5.72622C8.65399 5.72622 9.16727 5.21294 9.16727 4.57935C9.16727 3.94577 8.65399 3.43249 8.0204 3.43249C7.38682 3.43249 6.87354 3.94577 6.87354 4.57935C6.87354 5.21294 7.38682 5.72622 8.0204 5.72622Z" fill="white"/>
</svg>
