<svg width="20" height="20" viewBox="0 0 20 20" fill="none" xmlns="http://www.w3.org/2000/svg">
<circle cx="10.0003" cy="10.0001" r="8.33333" fill="#6B7280"/>
<path d="M9.99961 8.8251L11.5746 7.2501C11.8913 6.93343 12.4246 6.93343 12.7496 7.2501C13.0746 7.5751 13.0746 8.1001 12.7496 8.4251L11.1746 10.0001L12.7496 11.5751C13.0746 11.9001 13.0746 12.4251 12.7496 12.7501C12.4246 13.0751 11.8996 13.0751 11.5746 12.7501L9.99961 11.1751L8.42461 12.7501C8.09961 13.0751 7.57461 13.0751 7.24961 12.7501C6.92461 12.4251 6.92461 11.9001 7.24961 11.5751L8.82461 10.0001L7.24961 8.4251C6.92461 8.1001 6.92461 7.5751 7.24961 7.2501C7.57461 6.9251 8.09961 6.9251 8.42461 7.2501L9.99961 8.8251Z" fill="white"/>
</svg>
