<svg width="16" height="16" viewBox="0 0 16 16" fill="none" xmlns="http://www.w3.org/2000/svg">
<g clip-path="url(#clip0_1211_15600)">
<circle cx="8" cy="8" r="7.5" stroke="#B3B3B3"/>
<path d="M8 10.8256C8.24111 10.8256 8.47234 10.9138 8.64282 11.0708C8.81331 11.2278 8.90909 11.4407 8.90909 11.6628C8.90909 11.8848 8.81331 12.0978 8.64282 12.2548C8.47234 12.4118 8.24111 12.5 8 12.5C7.75889 12.5 7.52766 12.4118 7.35718 12.2548C7.18669 12.0978 7.09091 11.8848 7.09091 11.6628C7.09091 11.4407 7.18669 11.2278 7.35718 11.0708C7.52766 10.9138 7.75889 10.8256 8 10.8256ZM8 3.5C8.66304 3.5 9.29893 3.74257 9.76777 4.17434C10.2366 4.60611 10.5 5.19171 10.5 5.80233C10.5 6.64791 10.23 7.12009 9.54455 7.7773L9.39091 7.92046C8.82545 8.44121 8.68182 8.66223 8.68182 9.15116C8.68182 9.31769 8.60998 9.4774 8.48212 9.59516C8.35425 9.71291 8.18083 9.77907 8 9.77907C7.81917 9.77907 7.64575 9.71291 7.51788 9.59516C7.39002 9.4774 7.31818 9.31769 7.31818 9.15116C7.31818 8.30558 7.58818 7.8334 8.27364 7.17619L8.42727 7.03302C8.99273 6.51228 9.13636 6.29126 9.13636 5.80233C9.13542 5.53465 9.02314 5.27748 8.82261 5.08371C8.62208 4.88994 8.34855 4.7743 8.05827 4.76057C7.768 4.74685 7.48304 4.83608 7.26202 5.00992C7.04099 5.18376 6.9007 5.42898 6.87 5.69516L6.86364 5.80233C6.86364 5.96886 6.7918 6.12857 6.66394 6.24632C6.53607 6.36408 6.36265 6.43023 6.18182 6.43023C6.00099 6.43023 5.82757 6.36408 5.6997 6.24632C5.57183 6.12857 5.5 5.96886 5.5 5.80233C5.5 5.19171 5.76339 4.60611 6.23223 4.17434C6.70107 3.74257 7.33696 3.5 8 3.5Z" fill="#B3B3B3"/>
</g>
<defs>
<clipPath id="clip0_1211_15600">
<rect width="16" height="16" fill="white"/>
</clipPath>
</defs>
</svg>
