<svg width="21" height="20" viewBox="0 0 21 20" fill="none" xmlns="http://www.w3.org/2000/svg" id="searchSvg">
<path d="M16.2949 8.75008C16.2949 12.3831 13.3308 15.3334 9.66794 15.3334C6.00509 15.3334 3.04102 12.3831 3.04102 8.75008C3.04102 5.11709 6.00509 2.16675 9.66794 2.16675C13.3308 2.16675 16.2949 5.11709 16.2949 8.75008Z" stroke="#9CA3AF"/>
<path d="M9.66786 15C13.1409 15 15.9563 12.2018 15.9563 8.75C15.9563 5.29822 13.1409 2.5 9.66786 2.5C6.19483 2.5 3.37939 5.29822 3.37939 8.75C3.37939 12.2018 6.19483 15 9.66786 15Z" stroke="#9CA3AF" stroke-width="2"/>
<path d="M18.455 18.3333C18.3298 18.3343 18.2059 18.3109 18.0916 18.2645C17.9773 18.2181 17.8753 18.1499 17.7926 18.0644L13.6369 13.7108C13.5654 13.637 13.5115 13.5505 13.4785 13.4569C13.4454 13.3632 13.434 13.2644 13.4449 13.1665C13.4559 13.0687 13.4889 12.974 13.5419 12.8882C13.595 12.8025 13.6669 12.7277 13.7532 12.6684C13.9307 12.5438 14.1535 12.4848 14.3769 12.5034C14.6002 12.5219 14.8076 12.6167 14.9573 12.7686L19.1148 17.1238C19.186 17.1975 19.2397 17.2838 19.2727 17.3773C19.3056 17.4707 19.317 17.5694 19.3062 17.667C19.2954 17.7647 19.2625 17.8592 19.2097 17.9448C19.1569 18.0304 19.0853 18.1052 18.9993 18.1645C18.8438 18.2746 18.6521 18.3341 18.455 18.3333Z" fill="#9CA3AF"/>
</svg>