<svg width="45" height="45" viewBox="0 0 45 45" fill="none" xmlns="http://www.w3.org/2000/svg">
<path d="M22.5 1.87501C21.3649 1.87797 20.4456 2.7991 20.4456 3.93494C20.4456 5.07078 21.3649 5.9919 22.5 5.99487V6C25.1039 6 27.6708 6.61626 29.9908 7.79839C32.3109 8.98052 34.3183 10.695 35.8488 12.8015C37.3793 14.9081 38.3895 17.347 38.7969 19.9188C39.2042 22.4906 38.9971 25.1223 38.1924 27.5988C37.3878 30.0752 36.0085 32.326 34.1673 34.1673C32.326 36.0085 30.0752 37.3878 27.5988 38.1924C25.1224 38.9971 22.4907 39.2042 19.9188 38.7969C17.347 38.3895 14.9081 37.3793 12.8015 35.8488L12.8002 35.8507C12.476 35.6384 12.0883 35.515 11.6719 35.515C10.5328 35.515 9.60938 36.4384 9.60938 37.5775C9.60938 38.2267 9.90939 38.806 10.3784 39.184L10.3769 39.186C10.3954 39.1994 10.414 39.2129 10.4325 39.2262C10.4574 39.245 10.4828 39.2632 10.5085 39.2808C13.1115 41.1409 16.1122 42.3704 19.2735 42.8711C22.4883 43.3802 25.7779 43.1213 28.8735 42.1155C31.969 41.1097 34.7826 39.3856 37.0841 37.0841C39.3856 34.7826 41.1097 31.969 42.1155 28.8735C43.1213 25.7779 43.3802 22.4883 42.8711 19.2735C42.3619 16.0588 41.0991 13.0101 39.186 10.3769C37.2728 7.74371 34.7636 5.60066 31.8636 4.12299C28.9659 2.64655 25.7601 1.87627 22.5081 1.875C22.5072 1.875 22.5064 1.875 22.5055 1.875C22.505 1.875 22.5059 1.875 22.5055 1.875C22.5041 1.875 22.5014 1.87501 22.5 1.87501Z" fill="#F5F7F9"/>
</svg>
