<svg width="40" height="40" viewBox="0 0 40 40" fill="none" xmlns="http://www.w3.org/2000/svg">
<path d="M20.1854 14.5661C21.943 14.5661 23.3679 13.1413 23.3679 11.3836C23.3679 9.62601 21.943 8.20117 20.1854 8.20117C18.4278 8.20117 17.0029 9.62601 17.0029 11.3836C17.0029 13.1413 18.4278 14.5661 20.1854 14.5661Z" fill="#A4CAFE"/>
<path d="M13.9844 17.4111H7.96094V27.942H13.9844V17.4111Z" fill="#A4CAFE"/>
<path d="M23.3545 17.4111H17.3311V27.942H23.3545V17.4111Z" fill="#A4CAFE"/>
<path d="M32.0411 17.4111H26.0176V27.942H32.0411V17.4111Z" fill="#A4CAFE"/>
<path d="M33.7213 26.8213H6.63613C5.18831 26.8213 4 28.0096 4 29.4574V33.9784C4 34.6067 4.50537 35.1121 5.13367 35.1121H35.2374C35.8657 35.1121 36.3711 34.6067 36.3711 33.9784V29.4574C36.3711 28.0096 35.1828 26.8213 33.735 26.8213H33.7213Z" fill="#1C64F2"/>
<path d="M34.2814 9.50104L20.732 4.0922C20.4315 3.96927 19.9125 3.96927 19.612 4.0922L6.07624 9.50104C5.54355 9.70592 5.13379 10.3342 5.13379 10.8942V15.8933C5.13379 16.7265 5.81672 17.3958 6.63624 17.3958H33.7214C34.5546 17.3958 35.2239 16.7128 35.2239 15.8933V10.8942C35.2239 10.3206 34.8005 9.70592 34.2814 9.50104ZM20.1857 13.6396C18.9427 13.6396 17.932 12.6289 17.932 11.3859C17.932 10.143 18.9427 9.13225 20.1857 9.13225C21.4286 9.13225 22.4393 10.143 22.4393 11.3859C22.4393 12.6289 21.4286 13.6396 20.1857 13.6396Z" fill="#1C64F2"/>
</svg>
