<svg width="48" height="48" viewBox="0 0 48 48" fill="none" xmlns="http://www.w3.org/2000/svg">
<path d="M24 6C27.0798 6 30.1081 6.79022 32.7952 8.29507C35.4823 9.79992 37.7383 11.9691 39.3475 14.595C40.9567 17.221 41.8652 20.2159 41.9861 23.2933C42.107 26.3707 41.4363 29.4277 40.0381 32.1718C38.6399 34.9159 36.561 37.2554 34.0003 38.9664C31.4395 40.6775 28.4826 41.7029 25.4123 41.9445C22.342 42.1861 19.261 41.636 16.4641 40.3466C13.6672 39.0572 11.248 37.0717 9.4377 34.5801L12.6414 32.2525C14.0534 34.196 15.9404 35.7446 18.122 36.7503C20.3036 37.7561 22.7067 38.1852 25.1016 37.9967C27.4964 37.8082 29.8028 37.0084 31.8002 35.6738C33.7976 34.3392 35.4191 32.5144 36.5097 30.374C37.6003 28.2336 38.1235 25.8492 38.0292 23.4488C37.9349 21.0484 37.2262 18.7124 35.9711 16.6641C34.7159 14.6159 32.9562 12.9239 30.8602 11.7502C28.7643 10.5764 26.4022 9.96 24 9.96V6Z" fill="#1C64F2"/>
</svg>
