<svg width="120" height="120" viewBox="0 0 120 120" fill="none" xmlns="http://www.w3.org/2000/svg">
<path d="M42.5 34.8387C42.5 32.9945 43.995 31.4995 45.8392 31.4995H77.0237C77.8979 31.4995 78.7371 31.8423 79.3614 32.4542L90.9984 43.8626C91.639 44.4906 92 45.3499 92 46.247V94.6603C92 96.5045 90.505 97.9995 88.6608 97.9995H45.8392C43.995 97.9995 42.5 96.5045 42.5 94.6603V34.8387Z" fill="#D1D5DB"/>
<rect x="75.5" y="48.4998" width="28" height="23" rx="1.42857" fill="#9CA3AF"/>
<path d="M33.7365 25.339C33.7365 24.0865 34.7518 23.0712 36.0043 23.0712H67.3426C67.9441 23.0712 68.5209 23.3101 68.9462 23.7354L80.6683 35.4575C81.0936 35.8828 81.3326 36.4597 81.3326 37.0611V86.8213C81.3326 88.0738 80.3172 89.0891 79.0648 89.0891H36.0043C34.7518 89.0891 33.7365 88.0738 33.7365 86.8213V25.339Z" fill="#F3F4F6" stroke="#D1D5DB" stroke-width="2.14286"/>
<rect x="99.7236" y="64.7576" width="11.7242" height="1.5" transform="rotate(180 99.7236 64.7576)" fill="#D1D5DB"/>
<rect x="100.008" y="57.2961" width="7.03451" height="1.5" transform="rotate(180 100.008 57.2961)" fill="#D1D5DB"/>
<path d="M67.5 23.4998V33.6605C67.5 35.5047 68.995 36.9998 70.8392 36.9998H81" stroke="#D1D5DB" stroke-width="2.14286"/>
<ellipse cx="44.265" cy="78.2424" rx="3.51725" ry="3.44461" transform="rotate(180 44.265 78.2424)" fill="#D1D5DB"/>
<rect x="74.1621" y="68.4824" width="11.7242" height="1.5" transform="rotate(180 74.1621 68.4824)" fill="#D1D5DB"/>
<rect x="74.1621" y="52.4075" width="7.03451" height="1.5" transform="rotate(180 74.1621 52.4075)" fill="#D1D5DB"/>
<rect x="63.0244" y="52.4075" width="22.2759" height="1.5" transform="rotate(180 63.0244 52.4075)" fill="#D1D5DB"/>
<rect x="58.9209" y="68.4824" width="18.1725" height="1.5" transform="rotate(180 58.9209 68.4824)" fill="#D1D5DB"/>
<rect x="74.1621" y="61.0188" width="33.4139" height="1.5" transform="rotate(180 74.1621 61.0188)" fill="#D1D5DB"/>
<rect x="74.1621" y="43.7961" width="17.0001" height="1.5" transform="rotate(180 74.1621 43.7961)" fill="#D1D5DB"/>
<g clip-path="url(#clip0_1211_15572)">
<path d="M38.332 11.9067H18.207C16.6114 11.9067 15.332 13.2005 15.332 14.7817V34.9067C15.332 36.488 16.6114 37.7817 18.207 37.7817H23.957L28.2695 42.0942L32.582 37.7817H38.332C39.9133 37.7817 41.207 36.488 41.207 34.9067V14.7817C41.207 13.2005 39.9133 11.9067 38.332 11.9067ZM29.707 34.9067H26.832V32.0317H29.707V34.9067ZM32.6827 23.7661L31.3889 25.0886C30.3539 26.138 29.707 27.0005 29.707 29.1567H26.832V28.438C26.832 26.8567 27.4789 25.4192 28.5139 24.3699L30.2964 22.5586C30.8283 22.0411 31.1445 21.3224 31.1445 20.5317C31.1445 18.9505 29.8508 17.6567 28.2695 17.6567C26.6883 17.6567 25.3945 18.9505 25.3945 20.5317H22.5195C22.5195 17.3549 25.0927 14.7817 28.2695 14.7817C31.4464 14.7817 34.0195 17.3549 34.0195 20.5317C34.0195 21.7967 33.502 22.9467 32.6827 23.7661Z" fill="#6B7280"/>
</g>
<defs>
<clipPath id="clip0_1211_15572">
<rect width="34.5" height="34.5" fill="white" transform="translate(11.0195 11.6326)"/>
</clipPath>
</defs>
</svg>
